<?xml version="1.0" encoding="utf-8"?>
<!-- Generator: Adobe Illustrator 19.0.0, SVG Export Plug-In . SVG Version: 6.00 Build 0)  -->
<svg version="1.1" id="Layer_1" xmlns="http://www.w3.org/2000/svg" xmlns:xlink="http://www.w3.org/1999/xlink" x="0px" y="0px"
	 viewBox="0 0 184.3 28.6" style="enable-background:new 0 0 184.3 28.6;" xml:space="preserve">
<style type="text/css">
	.st0{fill:#2AB4CA;}
</style>
<g id="Group" transform="translate(2.846 14.102)">
	<path id="Combined_Shape_Copy_2" class="st0" d="M32.9-1.3L32.9-1.3l-4.2-4.1l4.7-4.7h0C39-15.5,48-15.4,53.5-9.8
		c2.6,2.7,4.1,6.3,4.1,10c0.1,7.8-6.3,14.2-14.1,14.3c-4.3,0-8.4-1.9-11.1-5.3l0,0l-6.9-6.9v0l-7.6-7.6c-0.1-0.1-0.1-0.1-0.2-0.2
		l-0.6-0.6C13.6-9.3,8.2-9,5.1-5.5s-2.8,8.9,0.7,12c1.6,1.4,3.6,2.2,5.6,2.2c2.4,0,4.7-1,6.3-2.8l-2.2-2.3h8.5v8.7L21.7,10
		C16.3,15.7,7.3,16,1.6,10.6C-1.3,7.9-2.9,4.1-2.8,0.2c0-7.8,6.3-14.2,14.1-14.3c3,0,6,0.9,8.4,2.7L36.9,5.7c3.1,3.6,8.4,4,12,0.9
		s4-8.4,0.9-12c-1.6-1.9-3.9-2.9-6.4-2.9c-2,0-3.9,0.7-5.4,1.9l-1.9,1.9L32.9-1.3L32.9-1.3z"/>
	<path id="Limitless" class="st0" d="M131.1,8.5c-1.4,0.1-2.7-0.4-3.8-1.3c-1-1-1.4-2.3-1.3-3.7v-5.7h-2.1v-3.1h2.1v-3.4h4v3.4h3.4
		v3.1h-3.4v5.6c0,0.5,0.1,1,0.4,1.3c0.3,0.3,0.8,0.5,1.3,0.5c0.6,0,1.1-0.2,1.6-0.5l1.1,2.8c-0.4,0.3-0.9,0.5-1.4,0.7
		C132.3,8.4,131.7,8.5,131.1,8.5z M175.8,8.4c-1.1,0-2.1-0.2-3.1-0.5c-0.9-0.2-1.6-0.6-2.3-1.2l0.8-1.4c0.6,0.5,1.4,0.9,2.1,1.1
		c0.9,0.3,1.8,0.4,2.7,0.4c0.9,0.1,1.9-0.1,2.7-0.6c0.6-0.3,0.9-1,0.9-1.6c0-0.4-0.2-0.9-0.5-1.2c-0.4-0.3-0.8-0.5-1.2-0.6
		c-0.6-0.2-1.3-0.3-2-0.4c-0.9-0.2-1.8-0.4-2.6-0.6c-0.7-0.2-1.2-0.6-1.7-1.1c-0.5-0.6-0.7-1.4-0.7-2.1c0-1.1,0.5-2.1,1.4-2.8
		c1.2-0.8,2.5-1.2,3.9-1.1c0.9,0,1.8,0.1,2.6,0.3c0.8,0.2,1.5,0.5,2.2,0.9l-0.8,1.5c-1.2-0.8-2.6-1.2-4-1.2
		c-0.9-0.1-1.8,0.2-2.6,0.6c-0.6,0.4-0.9,1-0.9,1.6c0,0.5,0.2,0.9,0.5,1.2c0.4,0.3,0.8,0.6,1.2,0.7c0.7,0.2,1.4,0.3,2.1,0.4
		c0.9,0.2,1.7,0.4,2.6,0.6c0.6,0.2,1.2,0.6,1.7,1.1c0.5,0.6,0.7,1.3,0.7,2.1c0,1.1-0.5,2.2-1.5,2.8C178.7,8.1,177.3,8.5,175.8,8.4z
		 M163.3,8.4c-1.1,0-2.1-0.2-3.1-0.5c-0.9-0.2-1.6-0.6-2.3-1.2l0.8-1.4c0.6,0.5,1.4,0.9,2.1,1.1c0.9,0.3,1.8,0.4,2.7,0.4
		c0.9,0.1,1.9-0.1,2.7-0.6c0.6-0.3,0.9-1,0.9-1.6c0-0.4-0.2-0.9-0.5-1.2c-0.4-0.3-0.8-0.5-1.2-0.6c-0.6-0.2-1.3-0.3-2-0.4
		c-0.9-0.2-1.8-0.4-2.6-0.6c-0.7-0.2-1.2-0.6-1.7-1.1c-0.5-0.6-0.7-1.4-0.7-2.1c0-1.1,0.5-2.1,1.4-2.8c1.2-0.8,2.5-1.2,3.9-1.1
		c0.9,0,1.8,0.1,2.6,0.3c0.8,0.2,1.5,0.5,2.2,0.9l-0.8,1.5c-1.2-0.8-2.6-1.2-4-1.2c-0.9-0.1-1.8,0.2-2.6,0.6c-0.6,0.4-0.9,1-0.9,1.6
		c0,0.5,0.2,0.9,0.5,1.2c0.4,0.3,0.8,0.6,1.2,0.7c0.7,0.2,1.4,0.3,2.1,0.4c0.9,0.2,1.7,0.4,2.6,0.6c0.6,0.2,1.2,0.6,1.7,1.1
		c0.5,0.6,0.7,1.3,0.7,2.1c0,1.1-0.5,2.2-1.5,2.8C166.2,8.1,164.7,8.5,163.3,8.4z M149.9,8.4c-1.3,0-2.5-0.3-3.7-0.9
		c-1-0.6-1.9-1.4-2.5-2.5c-0.6-1.1-0.9-2.3-0.9-3.5c0-1.2,0.3-2.5,0.9-3.5c0.5-1,1.4-1.9,2.4-2.4c1-0.6,2.2-0.9,3.4-0.9
		c1.2,0,2.3,0.3,3.4,0.9c1,0.6,1.8,1.4,2.3,2.4c0.6,1.1,0.9,2.3,0.8,3.6l0,0.6h-11.3c0.1,1.3,0.6,2.5,1.6,3.4c1,0.9,2.3,1.3,3.7,1.3
		c0.8,0,1.6-0.1,2.3-0.5c0.7-0.3,1.3-0.8,1.8-1.3l1,1.2c-0.6,0.7-1.4,1.3-2.2,1.6C151.9,8.2,150.9,8.4,149.9,8.4z M149.4-3.7
		c-1.2,0-2.4,0.4-3.3,1.2c-0.9,0.9-1.4,2-1.5,3.3h9.6c-0.1-1.2-0.6-2.4-1.5-3.3C151.8-3.3,150.6-3.8,149.4-3.7z M104.5,8.3h-4V1
		c0.1-0.9-0.2-1.7-0.7-2.4c-0.5-0.6-1.2-0.9-2-0.8c-0.8,0-1.6,0.3-2.2,0.9c-0.6,0.8-0.9,1.7-0.8,2.7v6.9h-4V-5.5h3.8v1.6
		c0.5-0.6,1.2-1,1.9-1.3c0.8-0.3,1.6-0.5,2.4-0.5c0.9,0,1.8,0.2,2.6,0.6c0.8,0.4,1.4,1,1.9,1.7c0.6-0.7,1.3-1.3,2.1-1.7
		c0.9-0.4,1.9-0.6,2.8-0.6c1.5-0.1,3,0.5,4.1,1.5c1.1,1.3,1.7,2.9,1.5,4.6v7.9h-4V1c0.1-0.9-0.2-1.7-0.7-2.5
		c-0.5-0.6-1.2-0.9-1.9-0.8c-0.8,0-1.7,0.3-2.2,0.9c-0.6,0.8-0.9,1.7-0.8,2.7L104.5,8.3L104.5,8.3z M121.7,8.3h-4V-5.5h4V8.3
		L121.7,8.3z M87.1,8.3h-4V-5.5h4V8.3L87.1,8.3z M81.1,8.3H67.9v-18h4.2V4.9h9L81.1,8.3L81.1,8.3z M137.3,8.3v-19.1h1.8V8.3
		L137.3,8.3L137.3,8.3z M119.7-7.4c-0.7,0-1.3-0.2-1.8-0.6c-0.5-0.4-0.7-1-0.7-1.6c0-0.6,0.2-1.2,0.7-1.6c0.5-0.4,1.1-0.7,1.8-0.6
		c0.7,0,1.3,0.2,1.8,0.6c0.4,0.4,0.7,1,0.7,1.5c0,0.6-0.2,1.2-0.7,1.7C121-7.7,120.4-7.4,119.7-7.4z M85.1-7.4
		c-0.7,0-1.3-0.2-1.8-0.6c-0.5-0.4-0.7-1-0.7-1.6c0-0.6,0.2-1.2,0.7-1.6c0.5-0.4,1.1-0.7,1.8-0.6c0.7,0,1.3,0.2,1.8,0.6
		c0.4,0.4,0.7,1,0.7,1.5c0,0.6-0.2,1.2-0.7,1.7C86.4-7.7,85.8-7.4,85.1-7.4z"/>
</g>
</svg>
