<?xml version="1.0" encoding="utf-8"?>
<!-- Generator: Adobe Illustrator 19.0.0, SVG Export Plug-In . SVG Version: 6.00 Build 0)  -->
<svg version="1.1" id="Layer_1" xmlns="http://www.w3.org/2000/svg" xmlns:xlink="http://www.w3.org/1999/xlink" x="0px" y="0px"
	 viewBox="0 0 102.4 48.4" style="enable-background:new 0 0 102.4 48.4;" xml:space="preserve">
<style type="text/css">
	.st0{fill:#2AB4CA;}
</style>
<path id="Combined_Shape_Copy_2" class="st0" d="M53.6,14.7l7.9-7.9c9.6-9.3,24.9-9,34.1,0.6s9,24.9-0.6,34.1
	c-4.5,4.3-10.5,6.7-16.7,6.8c-7.3,0-14.1-3.3-18.7-8.9L47.9,27.8c0,0-12.9-12.9-12.9-12.9c-0.1-0.1-0.2-0.2-0.3-0.3l-1-1
	c-5.9-5.3-15-4.8-20.3,1.1s-4.8,15,1.1,20.3c2.6,2.4,6,3.7,9.6,3.7c4,0,7.9-1.7,10.6-4.7l-3.8-3.8h14.4v14.7l-3.8-3.9
	c-9.1,9.6-24.4,10-34,0.9C2.7,37.2,0,30.8,0,24.2C-0.1,10.9,10.6,0.1,23.9,0c5.1,0,10.1,1.6,14.3,4.6l29.1,28.9
	c5.2,6,14.3,6.7,20.3,1.5c6-5.2,6.7-14.3,1.5-20.3c-2.7-3.2-6.7-5-10.9-5c-3.3,0-6.6,1.2-9.1,3.3L66,16.3l-5.3,5.5L53.6,14.7z"/>
</svg>
