<?xml version="1.0" encoding="utf-8"?>
<!-- Generator: Adobe Illustrator 19.0.0, SVG Export Plug-In . SVG Version: 6.00 Build 0)  -->
<svg version="1.1" id="Layer_1" xmlns="http://www.w3.org/2000/svg" xmlns:xlink="http://www.w3.org/1999/xlink" x="0px" y="0px"
	 viewBox="-266 406.9 61.4 29" style="enable-background:new -266 406.9 61.4 29;" xml:space="preserve">
<style type="text/css">
	.st0{fill:#FFFFFF;}
</style>
<path id="Combined_Shape_Copy_2" class="st0" d="M-233.8,415.5l4.7-4.7c5.8-5.5,14.9-5.4,20.5,0.4s5.4,14.9-0.4,20.5
	c-2.7,2.6-6.3,4-10,4.1c-4.3,0-8.5-2-11.2-5.3l-7-7l-7.7-7.7c-0.1-0.1-0.1-0.1-0.2-0.2l-0.6-0.6c-3.5-3.2-9-2.9-12.2,0.7
	c-3.2,3.6-2.9,9,0.7,12.2c1.6,1.4,3.6,2.2,5.7,2.2c2.4,0,4.7-1,6.4-2.8l-2.3-2.3h8.6v8.8l-2.3-2.3c-5.5,5.8-14.6,6-20.4,0.5
	c-2.9-2.7-4.5-6.6-4.5-10.5c0-8,6.4-14.5,14.3-14.5c3.1,0,6.1,0.9,8.6,2.8l17.5,17.3c3.1,3.6,8.5,4,12.2,0.9c3.7-3.1,4-8.5,0.9-12.2
	c-1.6-1.9-4-3-6.5-3c-2,0-3.9,0.7-5.5,2l-1.9,1.9l-3.2,3.3L-233.8,415.5z"/>
</svg>
