<?xml version="1.0" encoding="utf-8"?>
<!-- Generator: Adobe Illustrator 19.0.0, SVG Export Plug-In . SVG Version: 6.00 Build 0)  -->
<svg version="1.1" id="Layer_1" xmlns="http://www.w3.org/2000/svg" xmlns:xlink="http://www.w3.org/1999/xlink" x="0px" y="0px"
	 viewBox="0 0 136.6 26.6" style="enable-background:new 0 0 136.6 26.6;" xml:space="preserve">
<style type="text/css">
	.st0{fill:#FFFFFF;}
</style>
<path id="Logo_Copy" class="st0" d="M122.7,26.6c-2.4,0.1-4.8-1-6.4-2.9c-1.5-1.9-2.3-4.3-2.2-6.8c0-2.4,0.7-4.7,2.2-6.6
	c1.5-1.9,3.9-3,6.3-2.9c1.1,0,2.1,0.2,3.2,0.5c2.2,0.8,4,2.6,4.8,4.8c0.5,1.4,0.8,2.8,0.8,4.3c0,2.9-1.2,5.6-3.3,7.5
	C126.7,25.9,124.7,26.6,122.7,26.6z M122.7,11.2c-1.2,0-2.4,0.6-3.1,1.6c-0.8,1.2-1.2,2.6-1.2,4.1c0,4.3,2.3,5.9,4.3,5.9
	c1.1,0,2.2-0.4,2.9-1.2c1-1.1,1.5-2.6,1.5-4.1c0.1-1.8-0.4-3.5-1.4-4.9C124.9,11.7,123.8,11.2,122.7,11.2z M87.3,26.1h-4.1V8h4.2
	l3.7,6.6c1.4,2.6,1.8,3.4,2.6,4.9L93.5,8h4.1V26h-4.2l-3.2-5.7c-1.6-2.7-1.9-3.3-3-5.7L87.3,26.1L87.3,26.1z M49.1,26.1h-4.2V8h6.3
	l2.6,10.1l0.6,2.9v0l0-0.1c0.2-1.2,0.3-1.3,0.5-2.2L57.7,8H64V26h-4.1l0.3-12.9l0-1.8L60,12L60,12.2l0,0c-0.2,0.8-0.2,0.9-0.4,1.6
	l-3.3,12.1h-3.7l-3.1-11.6l-0.8-3.2c0,1,0.1,1.4,0.1,1.9v0c0,0.4,0,0.9,0.1,1.5L49.1,26.1L49.1,26.1z M108.4,26.1H104V11.6h-4.5V8
	h13.3v3.6h-4.5L108.4,26.1L108.4,26.1z M80.9,26.1H67.4V8h12.8v3.5h-8.5v3.3h7.9v3.4h-7.9v4.3h9.2L80.9,26.1L80.9,26.1z M42.6,26.1
	H29.1V8h12.8v3.5h-8.5v3.3h7.9v3.4h-7.9v4.3h9.2L42.6,26.1L42.6,26.1z M26.9,26.1H15.8V8h4.3v14.3h6.8L26.9,26.1L26.9,26.1z
	 M13.5,26.1H0V8h12.8v3.5H4.3v3.3h7.9v3.4H4.3v4.3h9.2L13.5,26.1L13.5,26.1z M135.7,8.5h-6.3c-0.5,0-0.9-0.4-0.9-0.9V0.9
	c0-0.5,0.4-0.9,0.9-0.9h6.3c0.5,0,0.9,0.4,0.9,0.9v6.6C136.6,8.1,136.2,8.5,135.7,8.5z M132.6,1.4L132.6,1.4c0,0.1,0,0.2,0,0.2
	c0,0.1-0.1,0.3-0.2,0.4c-0.1,0.2-0.3,0.3-0.5,0.3c-0.2,0-0.4,0.1-0.7,0.1v0.8h1.2v3.9h1V1.4H132.6L132.6,1.4z"/>
</svg>
